<mxfile host="app.diagrams.net" agent="Mozilla/5.0 (Windows NT 10.0; Win64; x64) AppleWebKit/537.36 (KHTML, like Gecko) Chrome/130.0.0.0 Safari/537.36" version="24.8.3">
  <diagram name="DFD Level 1" id="VAEdNxkP4sXyEAfFGgsp">
    <mxGraphModel dx="453" dy="484" grid="1" gridSize="10" guides="1" tooltips="1" connect="1" arrows="1" fold="1" page="1" pageScale="1" pageWidth="827" pageHeight="1169" math="0" shadow="0">
      <root>
        <mxCell id="0" />
        <mxCell id="1" parent="0" />
        <mxCell id="vMI35wwO15isG4lO2U92-1" value="&lt;b&gt;Data Flow Diagram (DFD) Sistem Usulan&lt;/b&gt;" style="text;html=1;align=center;verticalAlign=middle;whiteSpace=wrap;rounded=0;" vertex="1" parent="1">
          <mxGeometry x="240" y="40" width="240" height="30" as="geometry" />
        </mxCell>
        <mxCell id="vMI35wwO15isG4lO2U92-2" value="&lt;b&gt;a) Diagram Konteks (Level 0)&amp;nbsp;&lt;/b&gt;" style="text;html=1;align=center;verticalAlign=middle;whiteSpace=wrap;rounded=0;" vertex="1" parent="1">
          <mxGeometry x="240" y="80" width="180" height="30" as="geometry" />
        </mxCell>
        <mxCell id="vMI35wwO15isG4lO2U92-3" value="" style="rounded=0;whiteSpace=wrap;html=1;" vertex="1" parent="1">
          <mxGeometry x="80" y="160" width="120" height="60" as="geometry" />
        </mxCell>
        <mxCell id="vMI35wwO15isG4lO2U92-13" style="edgeStyle=orthogonalEdgeStyle;rounded=0;orthogonalLoop=1;jettySize=auto;html=1;entryX=0.5;entryY=1;entryDx=0;entryDy=0;" edge="1" parent="1" source="vMI35wwO15isG4lO2U92-4" target="vMI35wwO15isG4lO2U92-5">
          <mxGeometry relative="1" as="geometry" />
        </mxCell>
        <mxCell id="vMI35wwO15isG4lO2U92-4" value="" style="rounded=0;whiteSpace=wrap;html=1;" vertex="1" parent="1">
          <mxGeometry x="80" y="450" width="120" height="60" as="geometry" />
        </mxCell>
        <mxCell id="vMI35wwO15isG4lO2U92-5" value="0.0&lt;div&gt;Sistem informasi surat masuk dan surat keluar berbasis web&lt;/div&gt;" style="ellipse;whiteSpace=wrap;html=1;aspect=fixed;" vertex="1" parent="1">
          <mxGeometry x="280" y="230" width="180" height="180" as="geometry" />
        </mxCell>
        <mxCell id="vMI35wwO15isG4lO2U92-12" style="edgeStyle=orthogonalEdgeStyle;rounded=0;orthogonalLoop=1;jettySize=auto;html=1;" edge="1" parent="1" source="vMI35wwO15isG4lO2U92-6" target="vMI35wwO15isG4lO2U92-5">
          <mxGeometry relative="1" as="geometry" />
        </mxCell>
        <mxCell id="vMI35wwO15isG4lO2U92-16" value="Buat surat melihat data&lt;div&gt;surat-surat masuk dan surat&lt;/div&gt;&lt;div&gt;keluar melihat disposisi&lt;/div&gt;" style="edgeLabel;html=1;align=center;verticalAlign=middle;resizable=0;points=[];" vertex="1" connectable="0" parent="vMI35wwO15isG4lO2U92-12">
          <mxGeometry x="-0.0764" y="2" relative="1" as="geometry">
            <mxPoint x="15" y="18" as="offset" />
          </mxGeometry>
        </mxCell>
        <mxCell id="vMI35wwO15isG4lO2U92-6" value="Sekertaris&amp;nbsp;" style="rounded=0;whiteSpace=wrap;html=1;" vertex="1" parent="1">
          <mxGeometry x="520" y="160" width="120" height="60" as="geometry" />
        </mxCell>
        <mxCell id="vMI35wwO15isG4lO2U92-7" value="Staff DPRD" style="rounded=0;whiteSpace=wrap;html=1;" vertex="1" parent="1">
          <mxGeometry x="520" y="450" width="120" height="60" as="geometry" />
        </mxCell>
        <mxCell id="vMI35wwO15isG4lO2U92-11" style="edgeStyle=orthogonalEdgeStyle;rounded=0;orthogonalLoop=1;jettySize=auto;html=1;entryX=0.416;entryY=-0.001;entryDx=0;entryDy=0;entryPerimeter=0;" edge="1" parent="1" source="vMI35wwO15isG4lO2U92-3" target="vMI35wwO15isG4lO2U92-5">
          <mxGeometry relative="1" as="geometry" />
        </mxCell>
        <mxCell id="vMI35wwO15isG4lO2U92-17" value="Input data surat masuk dan&lt;div&gt;surat keluar disposisikan surat&lt;/div&gt;&lt;div&gt;laporan surat mengatur user&lt;/div&gt;" style="edgeLabel;html=1;align=center;verticalAlign=middle;resizable=0;points=[];" vertex="1" connectable="0" parent="vMI35wwO15isG4lO2U92-11">
          <mxGeometry x="-0.1868" y="1" relative="1" as="geometry">
            <mxPoint x="-4" y="22" as="offset" />
          </mxGeometry>
        </mxCell>
        <mxCell id="vMI35wwO15isG4lO2U92-18" value="Input data surat masuk dan&lt;div&gt;surat keluar disposisikan surat&lt;/div&gt;&lt;div&gt;laporan surat mengatur user&lt;/div&gt;" style="edgeLabel;html=1;align=center;verticalAlign=middle;resizable=0;points=[];" vertex="1" connectable="0" parent="vMI35wwO15isG4lO2U92-11">
          <mxGeometry x="-0.1868" y="1" relative="1" as="geometry">
            <mxPoint x="1" y="271" as="offset" />
          </mxGeometry>
        </mxCell>
        <mxCell id="vMI35wwO15isG4lO2U92-19" value="melihat data surat-surat&lt;div&gt;dan surat keluar melihat&lt;/div&gt;&lt;div&gt;disposisi&lt;/div&gt;" style="edgeLabel;html=1;align=center;verticalAlign=middle;resizable=0;points=[];" vertex="1" connectable="0" parent="vMI35wwO15isG4lO2U92-11">
          <mxGeometry x="-0.1868" y="1" relative="1" as="geometry">
            <mxPoint x="171" y="271" as="offset" />
          </mxGeometry>
        </mxCell>
        <mxCell id="vMI35wwO15isG4lO2U92-15" style="edgeStyle=orthogonalEdgeStyle;rounded=0;orthogonalLoop=1;jettySize=auto;html=1;entryX=0.546;entryY=0.997;entryDx=0;entryDy=0;entryPerimeter=0;" edge="1" parent="1" source="vMI35wwO15isG4lO2U92-7" target="vMI35wwO15isG4lO2U92-5">
          <mxGeometry relative="1" as="geometry" />
        </mxCell>
        <mxCell id="vMI35wwO15isG4lO2U92-20" value="&lt;b&gt;Diagram Konteks Usulan (Level 0)&amp;nbsp;&lt;/b&gt;" style="text;html=1;align=center;verticalAlign=middle;whiteSpace=wrap;rounded=0;" vertex="1" parent="1">
          <mxGeometry x="240" y="600" width="240" height="30" as="geometry" />
        </mxCell>
      </root>
    </mxGraphModel>
  </diagram>
</mxfile>
